<svg xmlns="http://www.w3.org/2000/svg" xmlns:xlink="http://www.w3.org/1999/xlink" width="1920" zoomAndPan="magnify" viewBox="0 0 1440 404.99999" height="540" preserveAspectRatio="xMidYMid meet" version="1.0"><defs><g/><clipPath id="7deb46a728"><path d="M 88.402344 71.414062 L 285.644531 71.414062 L 285.644531 333.375 L 88.402344 333.375 Z M 88.402344 71.414062 " clip-rule="nonzero"/></clipPath><clipPath id="8fb4162da5"><path d="M 88.402344 267.628906 L 88.402344 137.371094 L 285.644531 71.625 L 285.644531 333.375 Z M 88.402344 267.628906 " clip-rule="nonzero"/></clipPath><clipPath id="37321bed15"><path d="M 3.75 109.574219 L 88.378906 109.574219 L 88.378906 296 L 3.75 296 Z M 3.75 109.574219 " clip-rule="nonzero"/></clipPath><clipPath id="36ce2f2512"><path d="M 88.378906 137.785156 L 88.378906 267.785156 L 3.75 295.996094 L 3.75 109.574219 Z M 88.378906 137.785156 " clip-rule="nonzero"/></clipPath></defs><rect x="-144" width="1728" fill="#ffffff" y="-40.499999" height="485.999988" fill-opacity="1"/><rect x="-144" width="1728" fill="#ffffff" y="-40.499999" height="485.999988" fill-opacity="1"/><g clip-path="url(#7deb46a728)"><g clip-path="url(#8fb4162da5)"><path fill="#000000" d="M 88.402344 333.375 L 88.402344 71.414062 L 285.644531 71.414062 L 285.644531 333.375 Z M 88.402344 333.375 " fill-opacity="1" fill-rule="nonzero"/></g></g><g clip-path="url(#37321bed15)"><g clip-path="url(#36ce2f2512)"><path fill="#000000" d="M 88.378906 109.574219 L 88.378906 296.027344 L 3.75 296.027344 L 3.75 109.574219 Z M 88.378906 109.574219 " fill-opacity="1" fill-rule="nonzero"/></g></g><path stroke-linecap="butt" transform="matrix(0, -2.337936, 2.337936, 0, 76.705786, 277.93299)" fill="none" stroke-linejoin="miter" d="M -0.00025843 4.9996 L 72.020071 4.9996 " stroke="#ffffff" stroke-width="10" stroke-opacity="1" stroke-miterlimit="4"/><g fill="#000000" fill-opacity="1"><g transform="translate(379.768089, 298.922998)"><g><path d="M 81.5 -109.09375 L 81.5 10.578125 L 62.421875 10.578125 L 62.421875 -109.09375 C 42.296875 -67.488281 32.148438 -46.597656 31.984375 -46.421875 L 8.765625 -46.421875 L 58.8125 -145.71875 L 15.21875 -145.71875 L 15.21875 -164.546875 L 62.421875 -164.546875 L 62.421875 -198.078125 L 81.5 -209.6875 L 81.5 -164.546875 L 121.21875 -164.546875 L 115.8125 -145.71875 L 81.5 -145.71875 L 115.8125 -84.859375 L 102.90625 -61.90625 Z M 247.09375 -145.71875 L 202.203125 -145.71875 L 259.203125 -38.6875 L 236 -38.6875 L 197.3125 -110.640625 L 197.3125 10.0625 L 177.96875 10.0625 L 177.96875 -109.875 L 137.46875 -38.6875 L 113.484375 -38.6875 L 173.84375 -145.71875 L 136.703125 -145.71875 L 142.625 -164.546875 L 177.96875 -164.546875 L 177.96875 -198.078125 L 197.3125 -209.953125 L 197.3125 -164.546875 L 247.09375 -164.546875 Z M 247.09375 -145.71875 "/></g></g><g transform="translate(643.88331, 298.922998)"><g><path d="M 202.71875 -145.203125 L 202.71875 -130.25 L 60.875 -130.25 L 60.875 -144.6875 L 122.25 -144.6875 L 122.25 -158.109375 L 78.921875 -158.109375 L 78.921875 -171.78125 L 122.25 -171.78125 L 122.25 -180.796875 L 140.046875 -186.46875 L 140.046875 -171.78125 L 183.125 -171.78125 L 183.125 -158.109375 L 140.046875 -158.109375 L 140.046875 -145.203125 Z M 89.5 -105.234375 L 89.5 -86.65625 L 174.875 -86.65625 L 174.875 -105.234375 Z M 41.265625 -8.765625 L 222.328125 -8.765625 L 222.328125 -191.375 L 41.265625 -191.375 Z M 22.4375 -209.4375 L 241.671875 -209.4375 L 241.671875 9.03125 L 22.4375 9.03125 Z M 200.65625 -68.34375 L 200.65625 -51.0625 L 183.125 -47.71875 L 200.65625 -35.328125 L 200.65625 -16.25 L 136.4375 -59.328125 L 136.4375 -16.25 L 118.90625 -23.21875 L 118.90625 -55.453125 L 60.875 -26.046875 L 60.875 -44.109375 L 118.90625 -73.5 L 75.3125 -73.5 L 75.3125 -118.125 L 190.09375 -118.125 L 190.09375 -73.5 L 142.109375 -73.5 L 164.03125 -60.359375 Z M 200.65625 -68.34375 "/></g></g><g transform="translate(907.99853, 298.922998)"><g><path d="M 91.5625 -79.953125 L 96.71875 -129.734375 L 114.265625 -129.734375 L 108.578125 -79.953125 Z M 91.5625 -39.71875 L 91.5625 -21.40625 C 43.9375 -9.03125 16.425781 -1.894531 9.03125 0 L 9.03125 -20.375 C 12.46875 -21.0625 23.382812 -23.554688 41.78125 -27.859375 L 41.78125 -99.296875 L 15.46875 -99.296875 L 15.46875 -117.09375 L 41.78125 -117.09375 L 41.78125 -183.640625 L 12.125 -183.640625 L 12.125 -201.6875 L 88.984375 -201.6875 L 77.375 -183.890625 L 59.84375 -183.640625 L 59.84375 -117.09375 L 85.109375 -117.09375 L 85.109375 -99.296875 L 59.84375 -99.296875 L 59.84375 -31.984375 Z M 149.328125 -202.46875 L 132.0625 10.828125 L 109.609375 10.828125 L 128.1875 -202.46875 Z M 213.046875 -7.734375 L 252.5 -7.734375 L 252.5 10.828125 L 143.40625 10.828125 L 145.46875 -7.734375 L 194.46875 -7.734375 L 194.46875 -88.984375 L 165.578125 -88.984375 L 167.390625 -107.03125 L 194.46875 -107.03125 L 194.46875 -184.921875 L 161.203125 -184.921875 L 163 -202.46875 L 243.21875 -202.46875 L 238.578125 -184.921875 L 213.046875 -184.921875 L 213.046875 -107.03125 L 243.21875 -107.03125 L 240.890625 -88.984375 L 213.046875 -88.984375 Z M 213.046875 -7.734375 "/></g></g><g transform="translate(1172.11375, 298.922998)"><g><path d="M 74.015625 -154.75 L 74.015625 -191.890625 L 43.84375 -191.890625 L 43.84375 -154.75 Z M 43.84375 -42.296875 L 74.015625 -48.234375 L 74.015625 -84.34375 L 43.84375 -84.34375 Z M 43.84375 -138.25 L 43.84375 -100.59375 L 74.015625 -100.59375 L 74.015625 -138.25 Z M 105.75 -191.890625 L 90.78125 -191.890625 L 90.78125 20.125 L 74.015625 20.125 L 74.015625 -30.953125 C 46.679688 -25.273438 25.445312 -20.972656 10.3125 -18.046875 L 10.3125 -36.109375 C 12.03125 -36.453125 14.609375 -36.96875 18.046875 -37.65625 C 21.835938 -38.34375 24.765625 -38.859375 26.828125 -39.203125 L 26.828125 -191.890625 L 6.96875 -191.890625 L 13.15625 -209.6875 L 112.1875 -209.6875 Z M 174.875 -132.0625 L 173.0625 -108.0625 L 161.96875 -107.03125 C 153.375 -106.34375 140.910156 -105.226562 124.578125 -103.6875 C 114.253906 -102.65625 106.773438 -101.96875 102.140625 -101.625 L 101.109375 -116.328125 L 113.75 -117.09375 L 133.609375 -146.5 L 103.9375 -176.15625 L 112.96875 -187.25 L 129.46875 -209.953125 L 149.078125 -209.953125 C 147.523438 -207.191406 144.171875 -202.070312 139.015625 -194.59375 C 133.859375 -187.113281 129.472656 -180.710938 125.859375 -175.390625 C 131.191406 -170.054688 136.179688 -164.894531 140.828125 -159.90625 L 158.359375 -187.25 L 171.515625 -181.3125 L 131.015625 -118.640625 L 155.53125 -120.453125 L 156.8125 -130.765625 Z M 202.46875 -85.625 L 202.46875 -43.328125 L 228 -43.328125 L 228 -85.625 L 243.21875 -85.625 L 243.21875 -28.890625 L 202.46875 -28.890625 L 202.46875 17.796875 L 188.28125 17.796875 L 188.28125 -85.625 Z M 149.328125 -19.34375 L 149.328125 -28.625 L 110.640625 -28.625 L 110.640625 -85.375 L 125.859375 -85.375 L 125.859375 -43.59375 L 149.328125 -43.59375 L 149.59375 -85.375 L 165.84375 -85.375 L 165.84375 -11.34375 L 110.640625 20.890625 L 110.640625 3.609375 Z M 250.953125 -133.609375 L 246.828125 -108.84375 L 181.0625 -102.140625 L 179.25 -116.84375 L 190.34375 -117.875 L 206.328125 -147.265625 L 176.671875 -176.9375 L 185.703125 -188.015625 L 202.203125 -210.71875 L 221.8125 -210.71875 C 220.257812 -207.96875 216.90625 -202.851562 211.75 -195.375 C 206.59375 -187.894531 202.207031 -181.488281 198.59375 -176.15625 C 203.925781 -170.820312 208.914062 -165.664062 213.5625 -160.6875 L 229.546875 -188.53125 L 244.25 -182.09375 L 209.4375 -119.671875 L 233.15625 -121.734375 L 235.484375 -132.828125 Z M 250.953125 -133.609375 "/></g></g></g></svg>